8888888888                888      8888888888                       
888                       888      888                              
888                       888      888                              
8888888  .d88b.   .d88b.  888      8888888 888d888 .d88b.   .d88b.  
888     d8P  Y8b d8P  Y8b 888      888     888P"  d8P  Y8b d8P  Y8b 
888     88888888 88888888 888      888     888    88888888 88888888 
888     Y8b.     Y8b.     888      888     888    Y8b.     Y8b.     
888      "Y8888   "Y8888  888      888     888     "Y8888   "Y8888  


Genre:Crime | Drama | Thriller
Language:English
IMDb: 
http://www.imdb.com/title/tt1615065
Source:KiNGDOM Thanks
Encoder:Tony

Format : AVI
Format/Info : Audio Video Interleave
File size : 1.34 GiB
Duration : 2h 10mn
Overall bit rate : 1 474 Kbps

Video
ID : 0
Format : MPEG-4 Visual
Format profile : Advanced Simple@L5
Format settings, BVOP : 2
Format settings, QPel : No
Format settings, GMC : No warppoints
Format settings, Matrix : Default (H.263)
Muxing mode : Packed bitstream
Codec ID : XVID
Codec ID/Hint : XviD
Duration : 2h 10mn
Bit rate : 1 302 Kbps
Width : 640 pixels
Height : 344 pixels
Display aspect ratio : 1.85:1
Frame rate : 29.970 fps
Color space : YUV
Chroma subsampling : 4:2:0
Bit depth : 8 bits
Scan type : Progressive
Compression mode : Lossy
Bits/(Pixel*Frame) : 0.197
Stream size : 1.19 GiB (88%)
Writing library : XviD 64

Audio
ID : 1
Format : AC-3
Format/Info : Audio Coding 3
Mode extension : CM (complete main)
Format settings, Endianness : Big
Codec ID : 2000
Duration : 2h 10mn
Bit rate mode : Constant
Bit rate : 160 Kbps
Channel(s) : 2 channels
Channel positions : Front: L R
Sampling rate : 48.0 KHz
Bit depth : 16 bits
Compression mode : Lossy
Stream size : 149 MiB (11%)
Alignment : Aligned on interleaves
Interleave, duration : 33 ms (1.00 video frame)
Interleave, preload duration : 512 ms


Plot:
Pot growers Ben and Chon face off against the Mexican drug cartel who kidnapped their shared girlfriend.

Screen Shots:
                           
http://img687.imageshack.us/img687/3946/vlcsnap2012072017h26m10.png
 
http://img338.imageshack.us/img338/4503/vlcsnap2012072017h27m11.png
 
http://img267.imageshack.us/img267/1347/vlcsnap2012072017h26m43.png
 
http://img15.imageshack.us/img15/3905/vlcsnap2012072017h26m31.png


8888888888                888      8888888888                       
888                       888      888                              
888                       888      888                              
8888888  .d88b.   .d88b.  888      8888888 888d888 .d88b.   .d88b.  
888     d8P  Y8b d8P  Y8b 888      888     888P"  d8P  Y8b d8P  Y8b 
888     88888888 88888888 888      888     888    88888888 88888888 
888     Y8b.     Y8b.     888      888     888    Y8b.     Y8b.     
888      "Y8888   "Y8888  888      888     888     "Y8888   "Y8888  